  0
SECTION
  2
HEADER
  9
$ACADVER
  1
AC1009
  9
$INSBASE
 10
0
 20
0
 30
0
  9
$EXTMIN
 10
0
 20
0
  9
$EXTMAX
 10
297
 20
210
  9
$LIMMIN
 10
0
 20
0
  9
$LIMMAX
 10
297
 20
210
  9
$LTSCALE
 40
1
  0
ENDSEC
  0
SECTION
  2
TABLES
  0
TABLE
  2
LTYPE
 70
     9
  0
LTYPE
  2
CONTINUOUS
 70
    64
  3
実線
 72
    65
 73
     0
 40
0.0
  0
LTYPE
  2
DASHED1
 70
    64
  3
--  --  --  --  --  --  --  --  
 72
    65
 73
     2
 40
2.5
 49
1.25
 49
-1.25
  0
LTYPE
  2
DASHED2
 70
    64
  3
----    ----    ----    ----    
 72
    65
 73
     2
 40
5.0
 49
2.5
 49
-2.5
  0
LTYPE
  2
DASHED3
 70
    64
  3
------  ------  ------  ------  
 72
    65
 73
     2
 40
5.0
 49
3.75
 49
-1.25
  0
LTYPE
  2
CENTER1
 70
    64
  3
----- - ----- - ----- - ----- - 
 72
    65
 73
     4
 40
10.0
 49
6.25
 49
-1.25
 49
1.25
 49
-1.25
  0
LTYPE
  2
CENTER2
 70
    64
  3
----------  --  ----------  --  
 72
    65
 73
     4
 40
20.0
 49
12.5
 49
-2.5
 49
2.5
 49
-2.5
  0
LTYPE
  2
PHANTOM1
 70
    64
  3
--- - - --- - - --- - - --- - - 
 72
    65
 73
     6
 40
10.0
 49
3.25
 49
-1.25
 49
1.25
 49
-1.25
 49
1.25
 49
-1.25
  0
LTYPE
  2
PHANTOM2
 70
    64
  3
--------  -  -  --------  -  -  
 72
    65
 73
     6
 40
20.0
 49
10.0
 49
-2.5
 49
1.25
 49
-2.5
 49
1.25
 49
-2.5
  0
LTYPE
  2
DOT
 70
    64
  3
-   -   -   -   -   -   -   -   
 72
    65
 73
     2
 40
2.5
 49
0.625
 49
-1.875
  0
LTYPE
  2
DUMMY
 70
    64
  3
ダミー
 72
    65
 73
     0
 40
0.0
  0
LTYPE
  2
RAND1
 70
    64
  3
ランダム線1
 72
    65
 73
     4
 40
10.0
 49
1.0
 49
-2.0
 49
3.0
 49
-4.0
  0
LTYPE
  2
RAND2
 70
    64
  3
ランダム線2
 72
    65
 73
     4
 40
14.0
 49
2.0
 49
-3.0
 49
4.0
 49
-5.0
  0
LTYPE
  2
RAND3
 70
    64
  3
ランダム線3
 72
    65
 73
     4
 40
18.0
 49
3.0
 49
-4.0
 49
5.0
 49
-6.0
  0
LTYPE
  2
RAND4
 70
    64
  3
ランダム線4
 72
    65
 73
     4
 40
22.0
 49
4.0
 49
-5.0
 49
6.0
 49
-7.0
  0
LTYPE
  2
RAND5
 70
    64
  3
ランダム線5
 72
    65
 73
     4
 40
26.0
 49
5.0
 49
-6.0
 49
7.0
 49
-8.0
  0
LTYPE
  2
LONG1
 70
    64
  3
----------  --  ----------  --  
 72
    65
 73
     4
 40
40.0
 49
32.5
 49
-2.5
 49
2.5
 49
-2.5
  0
LTYPE
  2
LONG2
 70
    64
  3
--------  -  -  --------  -  -  
 72
    65
 73
     6
 40
40.0
 49
30.0
 49
-2.5
 49
1.25
 49
-2.5
 49
1.25
 49
-2.5
  0
LTYPE
  2
LONG3
 70
    64
  3
+++++++++++++++..+++++++++++++++
 72
    65
 73
     2
 40
40.0
 49
37.5
 49
-2.5
  0
LTYPE
  2
LONG4
 70
    64
  3
+++++++++++++++..+++++++++++++++
 72
    65
 73
     2
 40
80.0
 49
75.0
 49
-5.0
  0
LTYPE
  2
LONG5
 70
    64
  3
----------  --  ----------  --  
 72
    65
 73
     4
 40
60.0
 49
37.5
 49
-7.5
 49
7.5
 49
-7.5
  0
LTYPE
  2
dashed
 70
   64
  3
-------   -------------   ------
 72
   65
 73
    2
 40
7.5
 49
6
 49
-1.5
  0
LTYPE
  2
dashed_spaced
 70
   64
  3
----        --------        ----
 72
   65
 73
    2
 40
12
 49
6
 49
-6
  0
LTYPE
  2
long_dashed_dotted
 70
   64
  3
------------- --- --------------
 72
   65
 73
    4
 40
15.25
 49
12
 49
-1.5
 49
0.25
 49
-1.5
  0
LTYPE
  2
long_dashed_double-dotted
 70
   64
  3
----------- --- --- ------------
 72
   65
 73
    6
 40
17
 49
12
 49
-1.5
 49
0.25
 49
-1.5
 49
0.25
 49
-1.5
  0
LTYPE
  2
long_dashed_triplicate-dotted
 70
   64
  3
--------- --- --- --- ----------
 72
   65
 73
    8
 40
18.75
 49
12
 49
-1.5
 49
0.25
 49
-1.5
 49
0.25
 49
-1.5
 49
0.25
 49
-1.5
  0
LTYPE
  2
dotted
 70
   64
  3
   -       -       -       -    
 72
   65
 73
    2
 40
1.75
 49
0.25
 49
-1.5
  0
LTYPE
  2
chain
 70
   64
  3
-------------- -- --------------
 72
   65
 73
    4
 40
18.5
 49
12
 49
-1.5
 49
3.5
 49
-1.5
  0
LTYPE
  2
chain_double_dash
 70
   64
  3
------------ -- -- -------------
 72
   65
 73
    6
 40
23.5
 49
12
 49
-1.5
 49
3.5
 49
-1.5
 49
3.5
 49
-1.5
  0
LTYPE
  2
dashed_dotted
 70
   64
  3
-----------     -     ----------
 72
   65
 73
    4
 40
9.25
 49
6
 49
-1.5
 49
0.25
 49
-1.5
  0
LTYPE
  2
double-dashed_dotted
 70
   64
  3
------   -----------   -   -----
 72
   65
 73
    6
 40
16.75
 49
6
 49
-1.5
 49
6
 49
-1.5
 49
0.25
 49
-1.5
  0
LTYPE
  2
dashed_double-dotted
 70
   64
  3
---------    -    -    ---------
 72
   65
 73
    6
 40
11
 49
6
 49
-1.5
 49
0.25
 49
-1.5
 49
0.25
 49
-1.5
  0
LTYPE
  2
double-dashed_double-dotted
 70
   64
  3
-----   ---------   -   -   ----
 72
   65
 73
    8
 40
18.5
 49
6
 49
-1.5
 49
6
 49
-1.5
 49
0.25
 49
-1.5
 49
0.25
 49
-1.5
  0
LTYPE
  2
dashed_triplicate-dotted
 70
   64
  3
-------    -    -    -    ------
 72
   65
 73
    8
 40
12.75
 49
6
 49
-1.5
 49
0.25
 49
-1.5
 49
0.25
 49
-1.5
 49
0.25
 49
-1.5
  0
LTYPE
  2
double-dashed_triplicate-dotted
 70
   64
  3
-----  ---------  -  -  -  -----
 72
   65
 73
   10
 40
20.25
 49
6
 49
-1.5
 49
6
 49
-1.5
 49
0.25
 49
-1.5
 49
0.25
 49
-1.5
 49
0.25
 49
-1.5
  0
LTYPE
  2
undefined
 70
   64
  3
--------------------------------
 72
   65
 73
    0
 40
0
  0
ENDTAB
  0
TABLE
  2
STYLE
  5
3
100
AcDbSymbolTable
 70
     1
  0
STYLE
  5
10
100
AcDbSymbolTableRecord
100
AcDbTextStyleTableRecord
  2
STANDARD
 70
     0
 40
0.0
 41
1.0
 50
0.0
 71
     0
 42
0.2
  3
txt
  4
bigfont.shx
  0
STYLE
  5
26
100
AcDbSymbolTableRecord
100
AcDbTextStyleTableRecord
  2
TATEGAKI
 70
    68
 40
0.0
 41
1.0
 50
0.0
 71
     0
 42
1.0
  3
txt
  4
bigfont.shx
  0
ENDTAB
  0
TABLE
  2
LAYER
 70
    2
  0
LAYER
  2
_0-0_
 70
   64
 62
    7
  6
CONTINUOUS
  0
LAYER
  2
ADD_LINE
 70
   64
 62
    7
  6
CONTINUOUS
  0
ENDTAB
  0
ENDSEC
  0
SECTION
  2
BLOCKS
  0
ENDSEC
  0
SECTION
  2
ENTITIES
  0
LINE
  8
_0-0_
  6
CONTINUOUS
 62
    7
 10
60.397724312957649
 20
123.94591509796426
 11
60.397724312957649
 21
70.94591509796426
  0
ARC
  8
_0-0_
  6
CONTINUOUS
 62
    7
 10
118.31772431295764
 20
73.405915097964254
 40
0.8
 50
180.00000000000006
 51
0.0000000000000254
  0
ARC
  8
_0-0_
  6
CONTINUOUS
 62
    7
 10
115.77772431295763
 20
73.405915097964254
 40
0.8
 50
180.00000000000006
 51
0.0000000000000254
  0
ARC
  8
_0-0_
  6
CONTINUOUS
 62
    7
 10
113.23772431295762
 20
73.405915097964254
 40
0.8
 50
180.00000000000006
 51
0.0000000000000254
  0
ARC
  8
_0-0_
  6
CONTINUOUS
 62
    7
 10
110.69772431295762
 20
73.405915097964254
 40
0.8
 50
180.00000000000006
 51
0.0000000000000254
  0
ARC
  8
_0-0_
  6
CONTINUOUS
 62
    7
 10
115.77772431295764
 20
114.04591509796425
 40
0.8
 50
90
 51
270
  0
ARC
  8
_0-0_
  6
CONTINUOUS
 62
    7
 10
115.77772431295764
 20
103.88591509796426
 40
0.8
 50
90
 51
270
  0
ARC
  8
_0-0_
  6
CONTINUOUS
 62
    7
 10
115.77772431295764
 20
93.725915097964261
 40
0.8
 50
90
 51
270
  0
ARC
  8
_0-0_
  6
CONTINUOUS
 62
    7
 10
103.07772431295764
 20
93.725915097964261
 40
0.8
 50
90
 51
270
  0
ARC
  8
_0-0_
  6
CONTINUOUS
 62
    7
 10
103.07772431295764
 20
103.88591509796426
 40
0.8
 50
90
 51
270
  0
ARC
  8
_0-0_
  6
CONTINUOUS
 62
    7
 10
103.07772431295764
 20
114.04591509796425
 40
0.8
 50
90
 51
270
  0
ARC
  8
_0-0_
  6
CONTINUOUS
 62
    7
 10
90.377724312957653
 20
114.04591509796425
 40
0.8
 50
90
 51
270
  0
ARC
  8
_0-0_
  6
CONTINUOUS
 62
    7
 10
90.377724312957653
 20
103.88591509796426
 40
0.8
 50
90
 51
270
  0
ARC
  8
_0-0_
  6
CONTINUOUS
 62
    7
 10
90.377724312957653
 20
93.725915097964261
 40
0.8
 50
90
 51
270
  0
ARC
  8
_0-0_
  6
CONTINUOUS
 62
    7
 10
80.217724312957657
 20
114.04591509796425
 40
0.8
 50
90
 51
270
  0
ARC
  8
_0-0_
  6
CONTINUOUS
 62
    7
 10
70.05772431295766
 20
114.04591509796425
 40
0.8
 50
90
 51
270
  0
ARC
  8
_0-0_
  6
CONTINUOUS
 62
    7
 10
80.217724312957657
 20
103.88591509796426
 40
0.8
 50
90
 51
270
  0
ARC
  8
_0-0_
  6
CONTINUOUS
 62
    7
 10
70.05772431295766
 20
103.88591509796426
 40
0.8
 50
90
 51
270
  0
ARC
  8
_0-0_
  6
CONTINUOUS
 62
    7
 10
80.217724312957657
 20
93.725915097964261
 40
0.8
 50
90
 51
270
  0
LINE
  8
_0-0_
  6
CONTINUOUS
 62
    7
 10
72.597724312957652
 20
94.525915097964258
 11
70.05772431295766
 21
94.525915097964258
  0
LINE
  8
_0-0_
  6
CONTINUOUS
 62
    7
 10
72.597724312957652
 20
92.92591509796425
 11
70.05772431295766
 21
92.92591509796425
  0
ARC
  8
_0-0_
  6
CONTINUOUS
 62
    7
 10
70.05772431295766
 20
93.725915097964261
 40
0.8
 50
90
 51
270
  0
ARC
  8
_0-0_
  6
CONTINUOUS
 62
    7
 10
72.597724312957652
 20
93.725915097964261
 40
0.8
 50
270
 51
90
  0
LINE
  8
_0-0_
  6
CONTINUOUS
 62
    7
 10
98.937724312957656
 20
113.24591509796424
 11
90.377724312957653
 21
113.24591509796424
  0
LINE
  8
_0-0_
  6
CONTINUOUS
 62
    7
 10
100.53772431295765
 20
114.84591509796425
 11
90.377724312957653
 21
114.84591509796425
  0
LINE
  8
_0-0_
  6
CONTINUOUS
 62
    7
 10
97.997724312957658
 20
104.68591509796425
 11
90.377724312957653
 21
104.68591509796425
  0
LINE
  8
_0-0_
  6
CONTINUOUS
 62
    7
 10
96.397724312957664
 20
103.08591509796425
 11
90.377724312957653
 21
103.08591509796425
  0
LINE
  8
_0-0_
  6
CONTINUOUS
 62
    7
 10
88.637724312957644
 20
114.84591509796425
 11
80.217724312957657
 21
114.84591509796425
  0
LINE
  8
_0-0_
  6
CONTINUOUS
 62
    7
 10
87.03772431295765
 20
113.24591509796424
 11
80.217724312957657
 21
113.24591509796424
  0
LINE
  8
_0-0_
  6
CONTINUOUS
 62
    7
 10
117.51772431295765
 20
115.78591509796425
 11
117.51772431295765
 21
114.84591509796425
  0
LINE
  8
_0-0_
  6
CONTINUOUS
 62
    7
 10
117.51772431295765
 20
114.84591509796425
 11
115.77772431295764
 21
114.84591509796425
  0
LINE
  8
_0-0_
  6
CONTINUOUS
 62
    7
 10
119.11772431295765
 20
117.38591509796424
 11
119.11772431295765
 21
113.24591509796424
  0
LINE
  8
_0-0_
  6
CONTINUOUS
 62
    7
 10
119.11772431295765
 20
113.24591509796424
 11
115.77772431295764
 21
113.24591509796424
  0
LINE
  8
_0-0_
  6
CONTINUOUS
 62
    7
 10
124.19772431295765
 20
119.92591509796425
 11
124.19772431295765
 21
103.08591509796425
  0
LINE
  8
_0-0_
  6
CONTINUOUS
 62
    7
 10
124.19772431295765
 20
103.08591509796425
 11
115.77772431295764
 21
103.08591509796425
  0
LINE
  8
_0-0_
  6
CONTINUOUS
 62
    7
 10
122.59772431295765
 20
118.32591509796426
 11
122.59772431295765
 21
104.68591509796425
  0
LINE
  8
_0-0_
  6
CONTINUOUS
 62
    7
 10
122.59772431295765
 20
104.68591509796425
 11
115.77772431295764
 21
104.68591509796425
  0
LINE
  8
_0-0_
  6
CONTINUOUS
 62
    7
 10
119.11772431295763
 20
73.405915097964254
 11
119.11772431295763
 21
94.525915097964258
  0
LINE
  8
_0-0_
  6
CONTINUOUS
 62
    7
 10
119.11772431295763
 20
94.525915097964258
 11
115.77772431295764
 21
94.525915097964258
  0
LINE
  8
_0-0_
  6
CONTINUOUS
 62
    7
 10
117.51772431295764
 20
73.405915097964254
 11
117.51772431295764
 21
92.92591509796425
  0
LINE
  8
_0-0_
  6
CONTINUOUS
 62
    7
 10
117.51772431295764
 20
92.92591509796425
 11
115.77772431295764
 21
92.92591509796425
  0
LINE
  8
_0-0_
  6
CONTINUOUS
 62
    7
 10
86.097724312957652
 20
104.68591509796425
 11
80.217724312957657
 21
104.68591509796425
  0
LINE
  8
_0-0_
  6
CONTINUOUS
 62
    7
 10
84.497724312957658
 20
103.08591509796425
 11
80.217724312957657
 21
103.08591509796425
  0
LINE
  8
_0-0_
  6
CONTINUOUS
 62
    7
 10
83.55772431295766
 20
94.525915097964258
 11
80.217724312957657
 21
94.525915097964258
  0
LINE
  8
_0-0_
  6
CONTINUOUS
 62
    7
 10
81.957724312957666
 20
92.92591509796425
 11
80.217724312957657
 21
92.92591509796425
  0
ARC
  8
_0-0_
  6
CONTINUOUS
 62
    7
 10
105.61772431295765
 20
93.725915097964261
 40
0.8
 50
270
 51
90
  0
LINE
  8
_0-0_
  6
CONTINUOUS
 62
    7
 10
105.61772431295765
 20
94.525915097964258
 11
103.07772431295764
 21
94.525915097964258
  0
LINE
  8
_0-0_
  6
CONTINUOUS
 62
    7
 10
105.61772431295765
 20
92.92591509796425
 11
103.07772431295764
 21
92.92591509796425
  0
ARC
  8
_0-0_
  6
CONTINUOUS
 62
    7
 10
105.61772431295765
 20
114.04591509796425
 40
0.8
 50
270
 51
90
  0
ARC
  8
_0-0_
  6
CONTINUOUS
 62
    7
 10
105.61772431295765
 20
103.88591509796426
 40
0.8
 50
270
 51
90
  0
LINE
  8
_0-0_
  6
CONTINUOUS
 62
    7
 10
105.61772431295765
 20
114.84591509796425
 11
103.07772431295764
 21
114.84591509796425
  0
LINE
  8
_0-0_
  6
CONTINUOUS
 62
    7
 10
105.61772431295765
 20
113.24591509796424
 11
103.07772431295764
 21
113.24591509796424
  0
LINE
  8
_0-0_
  6
CONTINUOUS
 62
    7
 10
105.61772431295765
 20
103.08591509796425
 11
103.07772431295764
 21
103.08591509796425
  0
LINE
  8
_0-0_
  6
CONTINUOUS
 62
    7
 10
105.61772431295765
 20
104.68591509796425
 11
103.07772431295764
 21
104.68591509796425
  0
LINE
  8
_0-0_
  6
CONTINUOUS
 62
    7
 10
113.23772431295765
 20
109.76591509796425
 11
100.53772431295765
 21
109.76591509796425
  0
LINE
  8
_0-0_
  6
CONTINUOUS
 62
    7
 10
100.53772431295765
 20
109.76591509796425
 11
100.53772431295765
 21
114.84591509796425
  0
LINE
  8
_0-0_
  6
CONTINUOUS
 62
    7
 10
98.937724312957656
 20
113.24591509796424
 11
98.937724312957656
 21
108.16591509796426
  0
LINE
  8
_0-0_
  6
CONTINUOUS
 62
    7
 10
111.63772431295766
 20
108.16591509796426
 11
98.937724312957656
 21
108.16591509796426
  0
LINE
  8
_0-0_
  6
CONTINUOUS
 62
    7
 10
108.29772431295766
 20
98.005915097964248
 11
96.397724312957664
 21
98.005915097964248
  0
LINE
  8
_0-0_
  6
CONTINUOUS
 62
    7
 10
96.397724312957664
 20
103.08591509796425
 11
96.397724312957664
 21
98.005915097964248
  0
LINE
  8
_0-0_
  6
CONTINUOUS
 62
    7
 10
97.997724312957658
 20
104.68591509796425
 11
97.997724312957658
 21
99.605915097964242
  0
LINE
  8
_0-0_
  6
CONTINUOUS
 62
    7
 10
109.89772431295765
 20
99.605915097964242
 11
97.997724312957658
 21
99.605915097964242
  0
LINE
  8
_0-0_
  6
CONTINUOUS
 62
    7
 10
94.794982613160713
 20
92.92591509796425
 11
90.377724312957653
 21
92.92591509796425
  0
LINE
  8
_0-0_
  6
CONTINUOUS
 62
    7
 10
95.457724312957637
 20
94.525915097964258
 11
90.377724312957653
 21
94.525915097964258
  0
LINE
  8
_0-0_
  6
CONTINUOUS
 62
    7
 10
94.380769050787606
 20
91.92591509796425
 11
88.637724312957644
 21
91.92591509796425
  0
LINE
  8
_0-0_
  6
CONTINUOUS
 62
    7
 10
88.637724312957644
 20
114.84591509796425
 11
88.637724312957644
 21
91.92591509796425
  0
LINE
  8
_0-0_
  6
CONTINUOUS
 62
    7
 10
87.03772431295765
 20
113.24591509796424
 11
87.03772431295765
 21
90.325915097964256
  0
LINE
  8
_0-0_
  6
CONTINUOUS
 62
    7
 10
93.718027350990667
 20
90.325915097964256
 11
87.03772431295765
 21
90.325915097964256
  0
LINE
  8
_0-0_
  6
CONTINUOUS
 62
    7
 10
93.30381378861756
 20
89.325915097964256
 11
86.097724312957652
 21
89.325915097964256
  0
LINE
  8
_0-0_
  6
CONTINUOUS
 62
    7
 10
86.097724312957652
 20
104.68591509796425
 11
86.097724312957652
 21
89.325915097964256
  0
LINE
  8
_0-0_
  6
CONTINUOUS
 62
    7
 10
84.497724312957658
 20
103.08591509796425
 11
84.497724312957658
 21
87.725915097964247
  0
LINE
  8
_0-0_
  6
CONTINUOUS
 62
    7
 10
92.641072088820621
 20
87.725915097964247
 11
84.497724312957658
 21
87.725915097964247
  0
LINE
  8
_0-0_
  6
CONTINUOUS
 62
    7
 10
98.057724312957646
 20
91.92591509796425
 11
95.457724312957637
 21
94.525915097964258
  0
LINE
  8
_0-0_
  6
CONTINUOUS
 62
    7
 10
97.394982613160707
 20
90.325915097964256
 11
94.794982613160713
 21
92.92591509796425
  0
LINE
  8
_0-0_
  6
CONTINUOUS
 62
    7
 10
96.9807690507876
 20
89.325915097964256
 11
94.380769050787606
 21
91.92591509796425
  0
LINE
  8
_0-0_
  6
CONTINUOUS
 62
    7
 10
96.318027350990661
 20
87.725915097964247
 11
93.718027350990667
 21
90.325915097964256
  0
LINE
  8
_0-0_
  6
CONTINUOUS
 62
    7
 10
95.903813788617555
 20
86.725915097964247
 11
93.30381378861756
 21
89.325915097964256
  0
LINE
  8
_0-0_
  6
CONTINUOUS
 62
    7
 10
95.241072088820616
 20
85.125915097964253
 11
92.641072088820621
 21
87.725915097964247
  0
LINE
  8
_0-0_
  6
CONTINUOUS
 62
    7
 10
116.57772431295763
 20
73.405915097964254
 11
116.57772431295763
 21
90.385915097964286
  0
LINE
  8
_0-0_
  6
CONTINUOUS
 62
    7
 10
113.23772431295765
 20
93.725915097964261
 11
116.57772431295763
 21
90.385915097964286
  0
LINE
  8
_0-0_
  6
CONTINUOUS
 62
    7
 10
113.23772431295765
 20
109.76591509796425
 11
113.23772431295765
 21
93.725915097964261
  0
LINE
  8
_0-0_
  6
CONTINUOUS
 62
    7
 10
111.63772431295766
 20
108.16591509796426
 11
111.63772431295766
 21
93.063173398167294
  0
LINE
  8
_0-0_
  6
CONTINUOUS
 62
    7
 10
111.63772431295766
 20
93.063173398167294
 11
114.97772431295763
 21
89.723173398167333
  0
LINE
  8
_0-0_
  6
CONTINUOUS
 62
    7
 10
114.97772431295763
 20
73.405915097964254
 11
114.97772431295763
 21
89.723173398167333
  0
LINE
  8
_0-0_
  6
CONTINUOUS
 62
    7
 10
114.03772431295762
 20
73.405915097964254
 11
114.03772431295762
 21
89.248959835794253
  0
LINE
  8
_0-0_
  6
CONTINUOUS
 62
    7
 10
109.89772431295765
 20
93.388959835794196
 11
114.03772431295762
 21
89.248959835794253
  0
LINE
  8
_0-0_
  6
CONTINUOUS
 62
    7
 10
109.89772431295765
 20
99.605915097964242
 11
109.89772431295765
 21
93.388959835794196
  0
LINE
  8
_0-0_
  6
CONTINUOUS
 62
    7
 10
108.29772431295766
 20
98.005915097964248
 11
108.29772431295766
 21
92.726218135997229
  0
LINE
  8
_0-0_
  6
CONTINUOUS
 62
    7
 10
108.29772431295766
 20
92.726218135997229
 11
112.43772431295763
 21
88.586218135997285
  0
LINE
  8
_0-0_
  6
CONTINUOUS
 62
    7
 10
112.43772431295763
 20
73.405915097964254
 11
112.43772431295763
 21
88.586218135997285
  0
LINE
  8
_0-0_
  6
CONTINUOUS
 62
    7
 10
111.4977243129576
 20
73.405915097964254
 11
111.4977243129576
 21
88.112004573624205
  0
LINE
  8
_0-0_
  6
CONTINUOUS
 62
    7
 10
107.68381378861754
 20
91.92591509796425
 11
111.4977243129576
 21
88.112004573624205
  0
LINE
  8
_0-0_
  6
CONTINUOUS
 62
    7
 10
107.68381378861754
 20
91.92591509796425
 11
98.057724312957646
 21
91.92591509796425
  0
LINE
  8
_0-0_
  6
CONTINUOUS
 62
    7
 10
107.0210720888206
 20
90.325915097964256
 11
97.394982613160707
 21
90.325915097964256
  0
LINE
  8
_0-0_
  6
CONTINUOUS
 62
    7
 10
107.0210720888206
 20
90.325915097964256
 11
109.89772431295761
 21
87.449262873827251
  0
LINE
  8
_0-0_
  6
CONTINUOUS
 62
    7
 10
109.89772431295761
 20
73.405915097964254
 11
109.89772431295761
 21
87.449262873827251
  0
LINE
  8
_0-0_
  6
CONTINUOUS
 62
    7
 10
106.6068585264475
 20
89.325915097964256
 11
96.9807690507876
 21
89.325915097964256
  0
LINE
  8
_0-0_
  6
CONTINUOUS
 62
    7
 10
106.6068585264475
 20
89.325915097964256
 11
108.95772431295761
 21
86.975049311454143
  0
LINE
  8
_0-0_
  6
CONTINUOUS
 62
    7
 10
108.95772431295761
 20
73.405915097964254
 11
108.95772431295761
 21
86.975049311454143
  0
LINE
  8
_0-0_
  6
CONTINUOUS
 62
    7
 10
107.35772431295761
 20
73.405915097964254
 11
107.35772431295761
 21
86.312307611657189
  0
LINE
  8
_0-0_
  6
CONTINUOUS
 62
    7
 10
105.94411682665056
 20
87.725915097964247
 11
107.35772431295761
 21
86.312307611657189
  0
LINE
  8
_0-0_
  6
CONTINUOUS
 62
    7
 10
105.94411682665056
 20
87.725915097964247
 11
96.318027350990661
 21
87.725915097964247
  0
LINE
  8
_0-0_
  6
CONTINUOUS
 62
    7
 10
106.4177243129576
 20
73.405915097964254
 11
106.4177243129576
 21
85.838094049284109
  0
LINE
  8
_0-0_
  6
CONTINUOUS
 62
    7
 10
105.52990326427745
 20
86.725915097964247
 11
106.4177243129576
 21
85.838094049284109
  0
LINE
  8
_0-0_
  6
CONTINUOUS
 62
    7
 10
105.52990326427745
 20
86.725915097964247
 11
95.903813788617555
 21
86.725915097964247
  0
LINE
  8
_0-0_
  6
CONTINUOUS
 62
    7
 10
104.81772431295761
 20
73.405915097964254
 11
104.81772431295761
 21
85.125915097964253
  0
LINE
  8
_0-0_
  6
CONTINUOUS
 62
    7
 10
104.81772431295761
 20
85.125915097964253
 11
95.241072088820616
 21
85.125915097964253
  0
LINE
  8
_0-0_
  6
CONTINUOUS
 62
    7
 10
103.8777243129576
 20
73.405915097964254
 11
103.8777243129576
 21
84.125915097964253
  0
LINE
  8
_0-0_
  6
CONTINUOUS
 62
    7
 10
102.2777243129576
 20
73.405915097964254
 11
102.2777243129576
 21
82.525915097964258
  0
LINE
  8
_0-0_
  6
CONTINUOUS
 62
    7
 10
103.8777243129576
 20
84.125915097964253
 11
83.55772431295766
 21
84.125915097964253
  0
LINE
  8
_0-0_
  6
CONTINUOUS
 62
    7
 10
83.55772431295766
 20
94.525915097964258
 11
83.55772431295766
 21
84.125915097964253
  0
LINE
  8
_0-0_
  6
CONTINUOUS
 62
    7
 10
102.2777243129576
 20
82.525915097964258
 11
81.957724312957666
 21
82.525915097964258
  0
LINE
  8
_0-0_
  6
CONTINUOUS
 62
    7
 10
81.957724312957666
 20
92.92591509796425
 11
81.957724312957666
 21
82.525915097964258
  0
LINE
  8
_0-0_
  6
CONTINUOUS
 62
    7
 10
124.19772431295765
 20
119.92591509796425
 11
61.637724312957673
 21
119.92591509796425
  0
LINE
  8
_0-0_
  6
CONTINUOUS
 62
    7
 10
122.59772431295765
 20
118.32591509796426
 11
63.237724312957667
 21
118.32591509796426
  0
LINE
  8
_0-0_
  6
CONTINUOUS
 62
    7
 10
119.11772431295765
 20
117.38591509796424
 11
66.717724312957657
 21
117.38591509796424
  0
LINE
  8
_0-0_
  6
CONTINUOUS
 62
    7
 10
117.51772431295765
 20
115.78591509796425
 11
68.317724312957651
 21
115.78591509796425
  0
LINE
  8
_0-0_
  6
CONTINUOUS
 62
    7
 10
101.33772431295765
 20
81.825915097964256
 11
78.477724312957648
 21
81.825915097964256
  0
LINE
  8
_0-0_
  6
CONTINUOUS
 62
    7
 10
99.737724312957653
 20
80.225915097964247
 11
76.877724312957653
 21
80.225915097964247
  0
LINE
  8
_0-0_
  6
CONTINUOUS
 62
    7
 10
78.477724312957648
 20
114.84591509796425
 11
78.477724312957648
 21
81.825915097964256
  0
LINE
  8
_0-0_
  6
CONTINUOUS
 62
    7
 10
78.477724312957648
 20
114.84591509796425
 11
70.05772431295766
 21
114.84591509796425
  0
LINE
  8
_0-0_
  6
CONTINUOUS
 62
    7
 10
76.877724312957653
 20
113.24591509796424
 11
70.05772431295766
 21
113.24591509796424
  0
LINE
  8
_0-0_
  6
CONTINUOUS
 62
    7
 10
76.877724312957653
 20
113.24591509796424
 11
76.877724312957653
 21
80.225915097964247
  0
LINE
  8
_0-0_
  6
CONTINUOUS
 62
    7
 10
101.33772431295765
 20
81.825915097964256
 11
101.33772431295765
 21
73.405915097964254
  0
LINE
  8
_0-0_
  6
CONTINUOUS
 62
    7
 10
99.737724312957653
 20
80.225915097964247
 11
99.737724312957653
 21
73.405915097964254
  0
ARC
  8
_0-0_
  6
CONTINUOUS
 62
    7
 10
108.15772431295761
 20
73.405915097964254
 40
0.8
 50
180.00000000000006
 51
0.0000000000000254
  0
ARC
  8
_0-0_
  6
CONTINUOUS
 62
    7
 10
105.61772431295761
 20
73.405915097964254
 40
0.8
 50
180.00000000000006
 51
0.0000000000000254
  0
ARC
  8
_0-0_
  6
CONTINUOUS
 62
    7
 10
103.0777243129576
 20
73.405915097964254
 40
0.8
 50
180.00000000000006
 51
0.0000000000000254
  0
ARC
  8
_0-0_
  6
CONTINUOUS
 62
    7
 10
100.53772431295759
 20
73.405915097964254
 40
0.8
 50
180.00000000000006
 51
0.0000000000000254
  0
LINE
  8
_0-0_
  6
CONTINUOUS
 62
    7
 10
128.39772431295765
 20
123.94591509796426
 11
60.397724312957649
 21
123.94591509796426
  0
LINE
  8
_0-0_
  6
CONTINUOUS
 62
    7
 10
60.397724312957649
 20
123.94591509796426
 11
60.397724312957649
 21
70.94591509796426
  0
LINE
  8
_0-0_
  6
CONTINUOUS
 62
    7
 10
60.397724312957649
 20
70.94591509796426
 11
128.39772431295765
 21
70.94591509796426
  0
LINE
  8
_0-0_
  6
CONTINUOUS
 62
    7
 10
128.39772431295765
 20
70.94591509796426
 11
128.39772431295765
 21
123.94591509796426
  0
ARC
  8
_0-0_
  6
CONTINUOUS
 62
    7
 10
97.997724312957587
 20
73.405915097964254
 40
0.8
 50
179.99999999999963
 51
0
  0
LINE
  8
_0-0_
  6
CONTINUOUS
 62
    7
 10
98.797724312957655
 20
79.285915097964249
 11
98.797724312957655
 21
73.405915097964254
  0
LINE
  8
_0-0_
  6
CONTINUOUS
 62
    7
 10
97.197724312957661
 20
77.685915097964255
 11
97.197724312957661
 21
73.405915097964254
  0
LINE
  8
_0-0_
  6
CONTINUOUS
 62
    7
 10
98.797724312957655
 20
79.285915097964249
 11
75.937724312957656
 21
79.285915097964249
  0
LINE
  8
_0-0_
  6
CONTINUOUS
 62
    7
 10
97.197724312957661
 20
77.685915097964255
 11
74.337724312957661
 21
77.685915097964255
  0
LINE
  8
_0-0_
  6
CONTINUOUS
 62
    7
 10
75.937724312957656
 20
104.68591509796425
 11
70.05772431295766
 21
104.68591509796425
  0
LINE
  8
_0-0_
  6
CONTINUOUS
 62
    7
 10
75.937724312957656
 20
104.68591509796425
 11
75.937724312957656
 21
79.285915097964249
  0
LINE
  8
_0-0_
  6
CONTINUOUS
 62
    7
 10
74.337724312957661
 20
103.08591509796425
 11
70.05772431295766
 21
103.08591509796425
  0
LINE
  8
_0-0_
  6
CONTINUOUS
 62
    7
 10
74.337724312957661
 20
103.08591509796425
 11
74.337724312957661
 21
77.685915097964255
  0
ARC
  8
_0-0_
  6
CONTINUOUS
 62
    7
 10
95.457724312957581
 20
73.405915097964254
 40
0.8
 50
180.00000000000009
 51
0.0000000000004071
  0
LINE
  8
_0-0_
  6
CONTINUOUS
 62
    7
 10
96.257724312957649
 20
76.745915097964257
 11
96.257724312957649
 21
73.405915097964254
  0
LINE
  8
_0-0_
  6
CONTINUOUS
 62
    7
 10
94.657724312957654
 20
75.145915097964263
 11
94.657724312957654
 21
73.405915097964254
  0
LINE
  8
_0-0_
  6
CONTINUOUS
 62
    7
 10
96.257724312957649
 20
76.745915097964257
 11
63.237724312957667
 21
76.745915097964257
  0
LINE
  8
_0-0_
  6
CONTINUOUS
 62
    7
 10
63.237724312957667
 20
118.32591509796426
 11
63.237724312957667
 21
76.745915097964257
  0
LINE
  8
_0-0_
  6
CONTINUOUS
 62
    7
 10
61.637724312957673
 20
119.92591509796425
 11
61.637724312957673
 21
75.145915097964263
  0
LINE
  8
_0-0_
  6
CONTINUOUS
 62
    7
 10
94.657724312957654
 20
75.145915097964263
 11
61.637724312957673
 21
75.145915097964263
  0
LINE
  8
_0-0_
  6
CONTINUOUS
 62
    7
 10
68.317724312957651
 20
115.78591509796425
 11
68.317724312957651
 21
81.025915097964258
  0
LINE
  8
_0-0_
  6
CONTINUOUS
 62
    7
 10
66.717724312957657
 20
117.38591509796424
 11
66.717724312957657
 21
81.025915097964258
  0
ARC
  8
_0-0_
  6
CONTINUOUS
 62
    7
 10
67.517724312957668
 20
81.025915097964258
 40
0.8
 50
180
 51
0
  0
LINE
  8
_0-0_
  6
CONTINUOUS
 62
    7
 10
75.937724312957528
 20
72.105915097964257
 11
75.937724312957528
 21
73.405915097964254
  0
LINE
  8
_0-0_
  6
CONTINUOUS
 62
    7
 10
74.337724312957533
 20
72.105915097964257
 11
74.337724312957533
 21
73.405915097964254
  0
LINE
  8
_0-0_
  6
CONTINUOUS
 62
    7
 10
76.87772431295754
 20
72.105915097964257
 11
76.87772431295754
 21
73.405915097964254
  0
LINE
  8
_0-0_
  6
CONTINUOUS
 62
    7
 10
78.477724312957534
 20
72.105915097964257
 11
78.477724312957534
 21
73.405915097964254
  0
LINE
  8
_0-0_
  6
CONTINUOUS
 62
    7
 10
79.417724312957546
 20
72.105915097964257
 11
79.417724312957546
 21
73.405915097964254
  0
LINE
  8
_0-0_
  6
CONTINUOUS
 62
    7
 10
81.01772431295754
 20
72.105915097964257
 11
81.01772431295754
 21
73.405915097964254
  0
LINE
  8
_0-0_
  6
CONTINUOUS
 62
    7
 10
74.337724312957533
 20
72.105915097964257
 11
75.937724312957528
 21
72.105915097964257
  0
LINE
  8
_0-0_
  6
CONTINUOUS
 62
    7
 10
76.87772431295754
 20
72.105915097964257
 11
78.477724312957534
 21
72.105915097964257
  0
LINE
  8
_0-0_
  6
CONTINUOUS
 62
    7
 10
79.417724312957546
 20
72.105915097964257
 11
81.01772431295754
 21
72.105915097964257
  0
LINE
  8
_0-0_
  6
CONTINUOUS
 62
    7
 10
81.957724312957552
 20
72.105915097964257
 11
81.957724312957552
 21
73.405915097964254
  0
LINE
  8
_0-0_
  6
CONTINUOUS
 62
    7
 10
83.557724312957546
 20
72.105915097964257
 11
83.557724312957546
 21
73.405915097964254
  0
LINE
  8
_0-0_
  6
CONTINUOUS
 62
    7
 10
81.957724312957552
 20
72.105915097964257
 11
83.557724312957546
 21
72.105915097964257
  0
LINE
  8
_0-0_
  6
CONTINUOUS
 62
    7
 10
84.497724312957558
 20
72.105915097964257
 11
84.497724312957558
 21
73.405915097964254
  0
LINE
  8
_0-0_
  6
CONTINUOUS
 62
    7
 10
86.097724312957553
 20
72.105915097964257
 11
86.097724312957553
 21
73.405915097964254
  0
LINE
  8
_0-0_
  6
CONTINUOUS
 62
    7
 10
84.497724312957558
 20
72.105915097964257
 11
86.097724312957553
 21
72.105915097964257
  0
LINE
  8
_0-0_
  6
CONTINUOUS
 62
    7
 10
87.037724312957565
 20
72.105915097964257
 11
87.037724312957565
 21
73.405915097964254
  0
LINE
  8
_0-0_
  6
CONTINUOUS
 62
    7
 10
88.637724312957559
 20
72.105915097964257
 11
88.637724312957559
 21
73.405915097964254
  0
LINE
  8
_0-0_
  6
CONTINUOUS
 62
    7
 10
87.037724312957565
 20
72.105915097964257
 11
88.637724312957559
 21
72.105915097964257
  0
LINE
  8
_0-0_
  6
CONTINUOUS
 62
    7
 10
89.577724312957571
 20
72.105915097964257
 11
89.577724312957571
 21
73.405915097964254
  0
LINE
  8
_0-0_
  6
CONTINUOUS
 62
    7
 10
91.177724312957565
 20
72.105915097964257
 11
91.177724312957565
 21
73.405915097964254
  0
LINE
  8
_0-0_
  6
CONTINUOUS
 62
    7
 10
89.577724312957571
 20
72.105915097964257
 11
91.177724312957565
 21
72.105915097964257
  0
LINE
  8
_0-0_
  6
CONTINUOUS
 62
    7
 10
92.117724312957577
 20
72.105915097964257
 11
92.117724312957577
 21
73.405915097964254
  0
LINE
  8
_0-0_
  6
CONTINUOUS
 62
    7
 10
93.717724312957571
 20
72.105915097964257
 11
93.717724312957571
 21
73.405915097964254
  0
LINE
  8
_0-0_
  6
CONTINUOUS
 62
    7
 10
92.117724312957577
 20
72.105915097964257
 11
93.717724312957571
 21
72.105915097964257
  0
LINE
  8
_0-0_
  6
CONTINUOUS
 62
    7
 10
120.05772431295765
 20
72.105915097964257
 11
120.05772431295765
 21
73.405915097964254
  0
LINE
  8
_0-0_
  6
CONTINUOUS
 62
    7
 10
121.65772431295764
 20
72.105915097964257
 11
121.65772431295764
 21
73.405915097964254
  0
LINE
  8
_0-0_
  6
CONTINUOUS
 62
    7
 10
120.05772431295765
 20
72.105915097964257
 11
121.65772431295764
 21
72.105915097964257
  0
LINE
  8
_0-0_
  6
CONTINUOUS
 62
    7
 10
122.59772431295765
 20
72.105915097964257
 11
122.59772431295765
 21
73.405915097964254
  0
LINE
  8
_0-0_
  6
CONTINUOUS
 62
    7
 10
124.19772431295765
 20
72.105915097964257
 11
124.19772431295765
 21
73.405915097964254
  0
LINE
  8
_0-0_
  6
CONTINUOUS
 62
    7
 10
122.59772431295765
 20
72.105915097964257
 11
124.19772431295765
 21
72.105915097964257
  0
ARC
  8
_0-0_
  6
CONTINUOUS
 62
    7
 10
75.137724312957531
 20
73.405915097964254
 40
0.8
 50
0
 51
180
  0
ARC
  8
_0-0_
  6
CONTINUOUS
 62
    7
 10
77.677724312957537
 20
73.405915097964254
 40
0.8
 50
0.0000000000002544
 51
179.99999999999974
  0
ARC
  8
_0-0_
  6
CONTINUOUS
 62
    7
 10
80.217724312957543
 20
73.405915097964254
 40
0.8
 50
0.0000000000002544
 51
179.99999999999974
  0
ARC
  8
_0-0_
  6
CONTINUOUS
 62
    7
 10
82.757724312957549
 20
73.405915097964254
 40
0.8
 50
0.0000000000002544
 51
179.99999999999974
  0
ARC
  8
_0-0_
  6
CONTINUOUS
 62
    7
 10
85.297724312957556
 20
73.405915097964254
 40
0.8
 50
0.0000000000002544
 51
179.99999999999974
  0
ARC
  8
_0-0_
  6
CONTINUOUS
 62
    7
 10
87.837724312957562
 20
73.405915097964254
 40
0.8
 50
0.0000000000002544
 51
179.99999999999974
  0
ARC
  8
_0-0_
  6
CONTINUOUS
 62
    7
 10
90.377724312957568
 20
73.405915097964254
 40
0.8
 50
0
 51
179.99999999999974
  0
ARC
  8
_0-0_
  6
CONTINUOUS
 62
    7
 10
92.917724312957574
 20
73.405915097964254
 40
0.8
 50
0.0000000000002544
 51
180
  0
ARC
  8
_0-0_
  6
CONTINUOUS
 62
    7
 10
120.85772431295764
 20
73.405915097964254
 40
0.8
 50
0
 51
180
  0
ARC
  8
_0-0_
  6
CONTINUOUS
 62
    7
 10
123.39772431295765
 20
73.405915097964254
 40
0.8
 50
0.0000000000002544
 51
180
  0
ENDSEC
  0
EOF
