  0
SECTION
  2
HEADER
  9
$ACADVER
  1
AC1009
  9
$INSBASE
 10
0
 20
0
 30
0
  9
$EXTMIN
 10
0
 20
0
  9
$EXTMAX
 10
297
 20
210
  9
$LIMMIN
 10
0
 20
0
  9
$LIMMAX
 10
297
 20
210
  9
$LTSCALE
 40
1
  0
ENDSEC
  0
SECTION
  2
TABLES
  0
TABLE
  2
LTYPE
 70
     9
  0
LTYPE
  2
CONTINUOUS
 70
    64
  3
実線
 72
    65
 73
     0
 40
0.0
  0
LTYPE
  2
DASHED1
 70
    64
  3
--  --  --  --  --  --  --  --  
 72
    65
 73
     2
 40
2.5
 49
1.25
 49
-1.25
  0
LTYPE
  2
DASHED2
 70
    64
  3
----    ----    ----    ----    
 72
    65
 73
     2
 40
5.0
 49
2.5
 49
-2.5
  0
LTYPE
  2
DASHED3
 70
    64
  3
------  ------  ------  ------  
 72
    65
 73
     2
 40
5.0
 49
3.75
 49
-1.25
  0
LTYPE
  2
CENTER1
 70
    64
  3
----- - ----- - ----- - ----- - 
 72
    65
 73
     4
 40
10.0
 49
6.25
 49
-1.25
 49
1.25
 49
-1.25
  0
LTYPE
  2
CENTER2
 70
    64
  3
----------  --  ----------  --  
 72
    65
 73
     4
 40
20.0
 49
12.5
 49
-2.5
 49
2.5
 49
-2.5
  0
LTYPE
  2
PHANTOM1
 70
    64
  3
--- - - --- - - --- - - --- - - 
 72
    65
 73
     6
 40
10.0
 49
3.25
 49
-1.25
 49
1.25
 49
-1.25
 49
1.25
 49
-1.25
  0
LTYPE
  2
PHANTOM2
 70
    64
  3
--------  -  -  --------  -  -  
 72
    65
 73
     6
 40
20.0
 49
10.0
 49
-2.5
 49
1.25
 49
-2.5
 49
1.25
 49
-2.5
  0
LTYPE
  2
DOT
 70
    64
  3
-   -   -   -   -   -   -   -   
 72
    65
 73
     2
 40
2.5
 49
0.625
 49
-1.875
  0
LTYPE
  2
DUMMY
 70
    64
  3
ダミー
 72
    65
 73
     0
 40
0.0
  0
LTYPE
  2
RAND1
 70
    64
  3
ランダム線1
 72
    65
 73
     4
 40
10.0
 49
1.0
 49
-2.0
 49
3.0
 49
-4.0
  0
LTYPE
  2
RAND2
 70
    64
  3
ランダム線2
 72
    65
 73
     4
 40
14.0
 49
2.0
 49
-3.0
 49
4.0
 49
-5.0
  0
LTYPE
  2
RAND3
 70
    64
  3
ランダム線3
 72
    65
 73
     4
 40
18.0
 49
3.0
 49
-4.0
 49
5.0
 49
-6.0
  0
LTYPE
  2
RAND4
 70
    64
  3
ランダム線4
 72
    65
 73
     4
 40
22.0
 49
4.0
 49
-5.0
 49
6.0
 49
-7.0
  0
LTYPE
  2
RAND5
 70
    64
  3
ランダム線5
 72
    65
 73
     4
 40
26.0
 49
5.0
 49
-6.0
 49
7.0
 49
-8.0
  0
LTYPE
  2
LONG1
 70
    64
  3
----------  --  ----------  --  
 72
    65
 73
     4
 40
40.0
 49
32.5
 49
-2.5
 49
2.5
 49
-2.5
  0
LTYPE
  2
LONG2
 70
    64
  3
--------  -  -  --------  -  -  
 72
    65
 73
     6
 40
40.0
 49
30.0
 49
-2.5
 49
1.25
 49
-2.5
 49
1.25
 49
-2.5
  0
LTYPE
  2
LONG3
 70
    64
  3
+++++++++++++++..+++++++++++++++
 72
    65
 73
     2
 40
40.0
 49
37.5
 49
-2.5
  0
LTYPE
  2
LONG4
 70
    64
  3
+++++++++++++++..+++++++++++++++
 72
    65
 73
     2
 40
80.0
 49
75.0
 49
-5.0
  0
LTYPE
  2
LONG5
 70
    64
  3
----------  --  ----------  --  
 72
    65
 73
     4
 40
60.0
 49
37.5
 49
-7.5
 49
7.5
 49
-7.5
  0
LTYPE
  2
dashed
 70
   64
  3
-------   -------------   ------
 72
   65
 73
    2
 40
7.5
 49
6
 49
-1.5
  0
LTYPE
  2
dashed_spaced
 70
   64
  3
----        --------        ----
 72
   65
 73
    2
 40
12
 49
6
 49
-6
  0
LTYPE
  2
long_dashed_dotted
 70
   64
  3
------------- --- --------------
 72
   65
 73
    4
 40
15.25
 49
12
 49
-1.5
 49
0.25
 49
-1.5
  0
LTYPE
  2
long_dashed_double-dotted
 70
   64
  3
----------- --- --- ------------
 72
   65
 73
    6
 40
17
 49
12
 49
-1.5
 49
0.25
 49
-1.5
 49
0.25
 49
-1.5
  0
LTYPE
  2
long_dashed_triplicate-dotted
 70
   64
  3
--------- --- --- --- ----------
 72
   65
 73
    8
 40
18.75
 49
12
 49
-1.5
 49
0.25
 49
-1.5
 49
0.25
 49
-1.5
 49
0.25
 49
-1.5
  0
LTYPE
  2
dotted
 70
   64
  3
   -       -       -       -    
 72
   65
 73
    2
 40
1.75
 49
0.25
 49
-1.5
  0
LTYPE
  2
chain
 70
   64
  3
-------------- -- --------------
 72
   65
 73
    4
 40
18.5
 49
12
 49
-1.5
 49
3.5
 49
-1.5
  0
LTYPE
  2
chain_double_dash
 70
   64
  3
------------ -- -- -------------
 72
   65
 73
    6
 40
23.5
 49
12
 49
-1.5
 49
3.5
 49
-1.5
 49
3.5
 49
-1.5
  0
LTYPE
  2
dashed_dotted
 70
   64
  3
-----------     -     ----------
 72
   65
 73
    4
 40
9.25
 49
6
 49
-1.5
 49
0.25
 49
-1.5
  0
LTYPE
  2
double-dashed_dotted
 70
   64
  3
------   -----------   -   -----
 72
   65
 73
    6
 40
16.75
 49
6
 49
-1.5
 49
6
 49
-1.5
 49
0.25
 49
-1.5
  0
LTYPE
  2
dashed_double-dotted
 70
   64
  3
---------    -    -    ---------
 72
   65
 73
    6
 40
11
 49
6
 49
-1.5
 49
0.25
 49
-1.5
 49
0.25
 49
-1.5
  0
LTYPE
  2
double-dashed_double-dotted
 70
   64
  3
-----   ---------   -   -   ----
 72
   65
 73
    8
 40
18.5
 49
6
 49
-1.5
 49
6
 49
-1.5
 49
0.25
 49
-1.5
 49
0.25
 49
-1.5
  0
LTYPE
  2
dashed_triplicate-dotted
 70
   64
  3
-------    -    -    -    ------
 72
   65
 73
    8
 40
12.75
 49
6
 49
-1.5
 49
0.25
 49
-1.5
 49
0.25
 49
-1.5
 49
0.25
 49
-1.5
  0
LTYPE
  2
double-dashed_triplicate-dotted
 70
   64
  3
-----  ---------  -  -  -  -----
 72
   65
 73
   10
 40
20.25
 49
6
 49
-1.5
 49
6
 49
-1.5
 49
0.25
 49
-1.5
 49
0.25
 49
-1.5
 49
0.25
 49
-1.5
  0
LTYPE
  2
undefined
 70
   64
  3
--------------------------------
 72
   65
 73
    0
 40
0
  0
ENDTAB
  0
TABLE
  2
STYLE
  5
3
100
AcDbSymbolTable
 70
     1
  0
STYLE
  5
10
100
AcDbSymbolTableRecord
100
AcDbTextStyleTableRecord
  2
STANDARD
 70
     0
 40
0.0
 41
1.0
 50
0.0
 71
     0
 42
0.2
  3
txt
  4
bigfont.shx
  0
STYLE
  5
26
100
AcDbSymbolTableRecord
100
AcDbTextStyleTableRecord
  2
TATEGAKI
 70
    68
 40
0.0
 41
1.0
 50
0.0
 71
     0
 42
1.0
  3
txt
  4
bigfont.shx
  0
ENDTAB
  0
TABLE
  2
LAYER
 70
    2
  0
LAYER
  2
_0-0_
 70
   64
 62
    7
  6
CONTINUOUS
  0
LAYER
  2
ADD_LINE
 70
   64
 62
    7
  6
CONTINUOUS
  0
ENDTAB
  0
ENDSEC
  0
SECTION
  2
BLOCKS
  0
ENDSEC
  0
SECTION
  2
ENTITIES
  0
TEXT
  8
_0-0_
 62
    7
 10
104.86046511627907
 20
51.941860465116278
 40
4
 41
1
 50
0
  1
CNCルータ
  0
TEXT
  8
_0-0_
 62
    3
 10
177.38372093023256
 20
38.127906976744185
 40
6
 41
1
 50
0
  1
d
  0
LINE
  8
_0-0_
  6
CONTINUOUS
 62
    7
 10
198.93524150268334
 20
116.43996397707352
 11
198.93524150268334
 21
110.49206972739168
  0
LINE
  8
_0-0_
  6
CONTINUOUS
 62
    7
 10
238.93524150268334
 20
110.43996397707352
 11
198.93524150268334
 21
110.43996397707352
  0
LINE
  8
_0-0_
  6
CONTINUOUS
 62
    7
 10
198.93524150268334
 20
119.43996397707352
 11
198.93524150268334
 21
159.43996397707352
  0
LINE
  8
_0-0_
  6
CONTINUOUS
 62
    7
 10
238.93524150268334
 20
119.43996397707352
 11
198.93524150268334
 21
119.43996397707352
  0
LINE
  8
_0-0_
  6
CONTINUOUS
 62
    7
 10
238.93524150268334
 20
159.43996397707352
 11
238.93524150268334
 21
119.43996397707352
  0
LINE
  8
_0-0_
  6
CONTINUOUS
 62
    7
 10
238.93524150268334
 20
116.43996397707352
 11
198.93524150268334
 21
116.43996397707352
  0
LINE
  8
_0-0_
  6
CONTINUOUS
 62
    7
 10
198.93524150268334
 20
159.43996397707352
 11
231.23524150268335
 21
159.43996397707352
  0
LINE
  8
_0-0_
  6
CONTINUOUS
 62
    7
 10
234.23524150268335
 20
159.43996397707352
 11
238.93524150268334
 21
159.43996397707352
  0
LINE
  8
_0-0_
  6
CONTINUOUS
 62
    7
 10
238.93524150268334
 20
110.43996397707352
 11
238.93524150268334
 21
116.43996397707352
  0
LINE
  8
_0-0_
  6
CONTINUOUS
 62
    7
 10
242.18524150268334
 20
96.439963977073518
 11
242.18524150268334
 21
86.439963977073518
  0
LINE
  8
_0-0_
  6
CONTINUOUS
 62
    7
 10
242.18524150268334
 20
84.439963977073518
 11
242.18524150268334
 21
74.439963977073518
  0
LINE
  8
_0-0_
  6
CONTINUOUS
 62
    7
 10
242.18524150268334
 20
74.439963977073518
 11
195.68524150268334
 21
74.439963977073518
  0
LINE
  8
_0-0_
  6
CONTINUOUS
 62
    7
 10
242.18524150268334
 20
108.43996397707352
 11
195.68524150268334
 21
108.43996397707352
  0
LINE
  8
_0-0_
  6
CONTINUOUS
 62
    7
 10
242.18524150268334
 20
108.43996397707352
 11
242.18524150268334
 21
98.439963977073518
  0
LINE
  8
_0-0_
  6
CONTINUOUS
 62
    7
 10
195.68524150268334
 20
98.439963977073518
 11
195.68524150268334
 21
108.43996397707352
  0
LINE
  8
_0-0_
  6
CONTINUOUS
 62
    7
 10
242.18524150268334
 20
98.439963977073518
 11
195.68524150268334
 21
98.439963977073518
  0
LINE
  8
_0-0_
  6
CONTINUOUS
 62
    7
 10
242.18524150268334
 20
96.439963977073518
 11
195.68524150268334
 21
96.439963977073518
  0
LINE
  8
_0-0_
  6
CONTINUOUS
 62
    7
 10
195.68524150268334
 20
86.439963977073518
 11
195.68524150268334
 21
96.439963977073518
  0
LINE
  8
_0-0_
  6
CONTINUOUS
 62
    7
 10
242.18524150268334
 20
86.439963977073518
 11
195.68524150268334
 21
86.439963977073518
  0
LINE
  8
_0-0_
  6
CONTINUOUS
 62
    7
 10
195.68524150268334
 20
74.439963977073518
 11
195.68524150268334
 21
84.439963977073518
  0
LINE
  8
_0-0_
  6
CONTINUOUS
 62
    7
 10
242.18524150268334
 20
84.439963977073518
 11
195.68524150268334
 21
84.439963977073518
  0
LINE
  8
_0-0_
  6
CONTINUOUS
 62
    7
 10
206.23524150268335
 20
127.43996397707352
 11
206.23524150268335
 21
155.43996397707352
  0
LINE
  8
_0-0_
  6
CONTINUOUS
 62
    7
 10
231.23524150268335
 20
155.43996397707352
 11
206.23524150268335
 21
155.43996397707352
  0
LINE
  8
_0-0_
  6
CONTINUOUS
 62
    7
 10
231.23524150268335
 20
159.43996397707352
 11
231.23524150268335
 21
155.43996397707352
  0
LINE
  8
_0-0_
  6
CONTINUOUS
 62
    7
 10
234.23524150268335
 20
127.43996397707352
 11
234.23524150268335
 21
159.43996397707352
  0
LINE
  8
_0-0_
  6
CONTINUOUS
 62
    7
 10
234.23524150268335
 20
127.43996397707352
 11
206.23524150268335
 21
127.43996397707352
  0
TEXT
  8
_0-0_
 62
    2
 10
171.1046511627907
 20
178.77906976744185
 40
8
 41
1
 50
0
  1
レーザーカッター用データ
  0
TEXT
  8
_0-0_
 62
    2
 10
192.13953488372093
 20
164.33720930232559
 40
8
 41
1
 50
0
  1
アクリル　t2
  0
LINE
  8
_0-0_
  6
CONTINUOUS
 62
    7
 10
117.18524150268334
 20
139.43996397707352
 11
117.18524150268334
 21
129.43996397707352
  0
LINE
  8
_0-0_
  6
CONTINUOUS
 62
    7
 10
88.93524150268334
 20
99.439963977073518
 11
48.93524150268334
 21
99.439963977073518
  0
LINE
  8
_0-0_
  6
CONTINUOUS
 62
    7
 10
81.235241502683351
 20
133.43996397707352
 11
56.235241502683351
 21
133.43996397707352
  0
LINE
  8
_0-0_
  6
CONTINUOUS
 62
    7
 10
84.235241502683351
 20
105.43996397707352
 11
56.235241502683351
 21
105.43996397707352
  0
LINE
  8
_0-0_
  6
CONTINUOUS
 62
    7
 10
48.93524150268334
 20
139.43996397707352
 11
88.93524150268334
 21
139.43996397707352
  0
LINE
  8
_0-0_
  6
CONTINUOUS
 62
    7
 10
48.93524150268334
 20
137.43996397707352
 11
88.93524150268334
 21
137.43996397707352
  0
LINE
  8
_0-0_
  6
CONTINUOUS
 62
    7
 10
81.235241502683351
 20
137.43996397707352
 11
81.235241502683351
 21
133.43996397707352
  0
LINE
  8
_0-0_
  6
CONTINUOUS
 62
    7
 10
45.68524150268334
 20
119.43996397707352
 11
45.68524150268334
 21
129.43996397707352
  0
LINE
  8
_0-0_
  6
CONTINUOUS
 62
    7
 10
45.68524150268334
 20
119.43996397707352
 11
92.18524150268334
 21
119.43996397707352
  0
LINE
  8
_0-0_
  6
CONTINUOUS
 62
    7
 10
92.18524150268334
 20
129.43996397707352
 11
92.18524150268334
 21
119.43996397707352
  0
LINE
  8
_0-0_
  6
CONTINUOUS
 62
    7
 10
45.68524150268334
 20
129.43996397707352
 11
92.18524150268334
 21
129.43996397707352
  0
LINE
  8
_0-0_
  6
CONTINUOUS
 62
    7
 10
48.93524150268334
 20
99.439963977073518
 11
48.93524150268334
 21
119.43996397707352
  0
LINE
  8
_0-0_
  6
CONTINUOUS
 62
    7
 10
56.235241502683351
 20
105.43996397707352
 11
56.235241502683351
 21
119.43996397707352
  0
LINE
  8
_0-0_
  6
CONTINUOUS
 62
    7
 10
84.235241502683351
 20
105.43996397707352
 11
84.235241502683351
 21
119.43996397707352
  0
LINE
  8
_0-0_
  6
CONTINUOUS
 62
    7
 10
88.93524150268334
 20
119.43996397707352
 11
88.93524150268334
 21
99.439963977073518
  0
LINE
  8
_0-0_
  6
CONTINUOUS
 62
    7
 10
48.93524150268334
 20
129.43996397707352
 11
48.93524150268334
 21
139.43996397707352
  0
LINE
  8
_0-0_
  6
CONTINUOUS
 62
    7
 10
56.235241502683351
 20
129.43996397707352
 11
56.235241502683351
 21
133.43996397707352
  0
LINE
  8
_0-0_
  6
CONTINUOUS
 62
    7
 10
84.235241502683351
 20
129.43996397707352
 11
84.235241502683351
 21
137.43996397707352
  0
LINE
  8
_0-0_
  6
CONTINUOUS
 62
    7
 10
88.93524150268334
 20
139.43996397707352
 11
88.93524150268334
 21
129.43996397707352
  0
LINE
  8
_0-0_
  6
CONTINUOUS
 62
    7
 10
119.18524150268334
 20
137.43996397707352
 11
119.18524150268334
 21
139.43996397707352
  0
LINE
  8
_0-0_
  6
DASHED1
 62
    7
 10
117.18524150268334
 20
133.43996397707352
 11
119.18524150268334
 21
133.43996397707352
  0
LINE
  8
_0-0_
  6
DASHED1
 62
    7
 10
117.18524150268334
 20
105.43996397707352
 11
119.18524150268334
 21
105.43996397707352
  0
LINE
  8
_0-0_
  6
CONTINUOUS
 62
    7
 10
117.18524150268334
 20
99.439963977073518
 11
119.18524150268334
 21
99.439963977073518
  0
LINE
  8
_0-0_
  6
CONTINUOUS
 62
    7
 10
117.18524150268334
 20
119.43996397707352
 11
117.18524150268334
 21
99.439963977073518
  0
LINE
  8
_0-0_
  6
CONTINUOUS
 62
    7
 10
119.18524150268334
 20
137.43996397707352
 11
119.18524150268334
 21
129.43996397707352
  0
LINE
  8
_0-0_
  6
CONTINUOUS
 62
    7
 10
119.18524150268334
 20
119.43996397707352
 11
119.18524150268334
 21
99.439963977073518
  0
LINE
  8
_0-0_
  6
CONTINUOUS
 62
    7
 10
112.68524150268334
 20
129.43996397707352
 11
112.68524150268334
 21
119.43996397707352
  0
LINE
  8
_0-0_
  6
CONTINUOUS
 62
    7
 10
114.68524150268334
 20
129.43996397707352
 11
114.68524150268334
 21
119.43996397707352
  0
LINE
  8
_0-0_
  6
CONTINUOUS
 62
    7
 10
116.68524150268334
 20
129.43996397707352
 11
116.68524150268334
 21
119.43996397707352
  0
LINE
  8
_0-0_
  6
CONTINUOUS
 62
    7
 10
121.68524150268334
 20
129.43996397707352
 11
121.68524150268334
 21
119.43996397707352
  0
LINE
  8
_0-0_
  6
CONTINUOUS
 62
    7
 10
112.68524150268334
 20
129.43996397707352
 11
121.68524150268334
 21
129.43996397707352
  0
LINE
  8
_0-0_
  6
CONTINUOUS
 62
    7
 10
112.68524150268334
 20
119.43996397707352
 11
121.68524150268334
 21
119.43996397707352
  0
LINE
  8
_0-0_
  6
CONTINUOUS
 62
    7
 10
119.68524150268334
 20
129.43996397707352
 11
119.68524150268334
 21
119.43996397707352
  0
LINE
  8
_0-0_
  6
CONTINUOUS
 62
    7
 10
111.18524150268334
 20
139.43996397707352
 11
119.18524150268334
 21
139.43996397707352
  0
LINE
  8
_0-0_
  6
CONTINUOUS
 62
    7
 10
117.18524150268334
 20
137.43996397707352
 11
111.18524150268334
 21
137.43996397707352
  0
LINE
  8
_0-0_
  6
CONTINUOUS
 62
    7
 10
111.18524150268334
 20
137.43996397707352
 11
111.18524150268334
 21
139.43996397707352
  0
LINE
  8
_0-0_
  6
DASHED1
 62
    7
 10
48.68524150268334
 20
119.43996397707352
 11
48.68524150268334
 21
129.43996397707352
  0
LINE
  8
_0-0_
  6
DASHED1
 62
    7
 10
89.18524150268334
 20
129.43996397707352
 11
89.18524150268334
 21
119.43996397707352
  0
LINE
  8
_0-0_
  6
CONTINUOUS
 62
    7
 10
48.93524150268334
 20
159.43996397707352
 11
88.93524150268334
 21
159.43996397707352
  0
LINE
  8
_0-0_
  6
CONTINUOUS
 62
    7
 10
48.93524150268334
 20
165.43996397707352
 11
88.93524150268334
 21
165.43996397707352
  0
LINE
  8
_0-0_
  6
CONTINUOUS
 62
    7
 10
48.93524150268334
 20
167.43996397707352
 11
88.93524150268334
 21
167.43996397707352
  0
LINE
  8
_0-0_
  6
CONTINUOUS
 62
    7
 10
48.93524150268334
 20
167.43996397707352
 11
48.93524150268334
 21
159.43996397707352
  0
LINE
  8
_0-0_
  6
CONTINUOUS
 62
    7
 10
88.93524150268334
 20
167.43996397707352
 11
88.93524150268334
 21
159.43996397707352
  0
LINE
  8
_0-0_
  6
DASHED1
 62
    7
 10
48.93524150268334
 20
164.93996397707352
 11
88.93524150268334
 21
164.93996397707352
  0
LINE
  8
_0-0_
  6
CONTINUOUS
 62
    7
 10
45.68524150268334
 20
167.93996397707352
 11
92.18524150268334
 21
167.93996397707352
  0
LINE
  8
_0-0_
  6
CONTINUOUS
 62
    7
 10
45.68524150268334
 20
169.93996397707352
 11
92.18524150268334
 21
169.93996397707352
  0
LINE
  8
_0-0_
  6
CONTINUOUS
 62
    7
 10
45.68524150268334
 20
169.93996397707352
 11
45.68524150268334
 21
160.93996397707352
  0
LINE
  8
_0-0_
  6
CONTINUOUS
 62
    7
 10
92.18524150268334
 20
169.93996397707352
 11
92.18524150268334
 21
160.93996397707352
  0
LINE
  8
_0-0_
  6
CONTINUOUS
 62
    7
 10
45.68524150268334
 20
164.93996397707352
 11
48.93524150268334
 21
164.93996397707352
  0
LINE
  8
_0-0_
  6
CONTINUOUS
 62
    7
 10
88.93524150268334
 20
164.93996397707352
 11
92.18524150268334
 21
164.93996397707352
  0
LINE
  8
_0-0_
  6
CONTINUOUS
 62
    7
 10
48.68524150268334
 20
167.93996397707352
 11
48.68524150268334
 21
164.93996397707352
  0
LINE
  8
_0-0_
  6
CONTINUOUS
 62
    7
 10
89.18524150268334
 20
167.93996397707352
 11
89.18524150268334
 21
164.93996397707352
  0
LINE
  8
_0-0_
  6
CONTINUOUS
 62
    7
 10
45.68524150268334
 20
162.93996397707352
 11
48.93524150268334
 21
162.93996397707352
  0
LINE
  8
_0-0_
  6
CONTINUOUS
 62
    7
 10
88.93524150268334
 20
162.93996397707352
 11
92.18524150268334
 21
162.93996397707352
  0
LINE
  8
_0-0_
  6
CONTINUOUS
 62
    7
 10
45.68524150268334
 20
160.93996397707352
 11
48.93524150268334
 21
160.93996397707352
  0
LINE
  8
_0-0_
  6
CONTINUOUS
 62
    7
 10
88.93524150268334
 20
160.93996397707352
 11
92.18524150268334
 21
160.93996397707352
  0
LINE
  8
_0-0_
  6
DASHED1
 62
    7
 10
48.93524150268334
 20
162.93996397707352
 11
88.93524150268334
 21
162.93996397707352
  0
LINE
  8
_0-0_
  6
DASHED1
 62
    7
 10
88.93524150268334
 20
160.93996397707352
 11
48.93524150268334
 21
160.93996397707352
  0
TEXT
  8
_0-0_
 62
    6
 10
24.488372093023258
 20
176.98837209302326
 40
10
 41
1
 50
0
  1
LED足曲げ冶具　３面図
  0
LINE
  8
_0-0_
  6
DASHED1
 62
    7
 10
156.66279069767441
 20
201.69767441860466
 11
156.66279069767441
 21
19.918604651162795
  0
LINE
  8
_0-0_
  6
DASHED1
 62
    7
 10
57.235241502683351
 20
126.43996397707352
 11
57.235241502683351
 21
129.43996397707352
  0
LINE
  8
_0-0_
  6
DASHED1
 62
    7
 10
57.235241502683351
 20
126.43996397707352
 11
80.235241502683351
 21
126.43996397707352
  0
LINE
  8
_0-0_
  6
DASHED1
 62
    7
 10
80.235241502683351
 20
126.43996397707352
 11
80.235241502683351
 21
129.43996397707352
  0
LINE
  8
_0-0_
  6
DASHED1
 62
    7
 10
57.235241502683351
 20
164.93996397707352
 11
57.235241502683351
 21
167.43996397707352
  0
LINE
  8
_0-0_
  6
DASHED1
 62
    7
 10
80.235241502683351
 20
164.93996397707352
 11
80.235241502683351
 21
167.43996397707352
  0
LINE
  8
_0-0_
  6
CONTINUOUS
 62
    7
 10
57.235241502683351
 20
167.43996397707352
 11
57.235241502683351
 21
167.93996397707352
  0
LINE
  8
_0-0_
  6
CONTINUOUS
 62
    7
 10
80.235241502683351
 20
167.43996397707352
 11
80.235241502683351
 21
167.93996397707352
  0
LINE
  8
_0-0_
  6
DASHED1
 62
    7
 10
56.235241502683351
 20
165.43996397707352
 11
56.235241502683351
 21
167.43996397707352
  0
LINE
  8
_0-0_
  6
DASHED1
 62
    7
 10
81.235241502683351
 20
165.43996397707352
 11
81.235241502683351
 21
167.43996397707352
  0
LINE
  8
_0-0_
  6
CONTINUOUS
 62
    7
 10
183.05813953488371
 20
38.511627906976742
 11
193.05813953488371
 21
38.511627906976742
  0
LINE
  8
_0-0_
  6
CONTINUOUS
 62
    7
 10
193.05813953488371
 20
38.511627906976742
 11
193.05813953488371
 21
41.511627906976742
  0
LINE
  8
_0-0_
  6
CONTINUOUS
 62
    7
 10
193.05813953488371
 20
41.511627906976742
 11
183.05813953488371
 21
41.511627906976742
  0
LINE
  8
_0-0_
  6
CONTINUOUS
 62
    7
 10
183.05813953488371
 20
41.511627906976742
 11
183.05813953488371
 21
38.511627906976742
  0
LINE
  8
_0-0_
  6
CONTINUOUS
 62
    7
 10
183.05813953488371
 20
33.511627906976742
 11
193.05813953488371
 21
33.511627906976742
  0
LINE
  8
_0-0_
  6
CONTINUOUS
 62
    7
 10
193.05813953488371
 20
33.511627906976742
 11
193.05813953488371
 21
36.511627906976742
  0
LINE
  8
_0-0_
  6
CONTINUOUS
 62
    7
 10
193.05813953488371
 20
36.511627906976742
 11
183.05813953488371
 21
36.511627906976742
  0
LINE
  8
_0-0_
  6
CONTINUOUS
 62
    7
 10
183.05813953488371
 20
36.511627906976742
 11
183.05813953488371
 21
33.511627906976742
  0
LINE
  8
_0-0_
  6
CONTINUOUS
 62
    7
 10
183.05813953488371
 20
31.511627906976742
 11
183.05813953488371
 21
28.511627906976742
  0
LINE
  8
_0-0_
  6
CONTINUOUS
 62
    7
 10
183.05813953488371
 20
31.511627906976742
 11
206.05813953488371
 21
31.511627906976742
  0
LINE
  8
_0-0_
  6
CONTINUOUS
 62
    7
 10
183.05813953488371
 20
28.511627906976742
 11
206.05813953488371
 21
28.511627906976742
  0
LINE
  8
_0-0_
  6
CONTINUOUS
 62
    7
 10
206.05813953488371
 20
31.511627906976742
 11
206.05813953488371
 21
28.511627906976742
  0
TEXT
  8
_0-0_
 62
    2
 10
178.63953488372093
 20
48.174418604651166
 40
8
 41
1
 50
0
  1
アクリル　t3
  0
LINE
  8
_0-0_
  6
DASHED1
 62
    7
 10
156.66279069767441
 20
61.988372093023258
 11
284.75581395348837
 21
61.988372093023258
  0
TEXT
  8
_0-0_
 62
    3
 10
186.80232558139534
 20
138.59302325581396
 40
6
 41
1
 50
0
  1
a
  0
TEXT
  8
_0-0_
 62
    3
 10
187.43023255813955
 20
110.65116279069767
 40
6
 41
1
 50
0
  1
b
  0
TEXT
  8
_0-0_
 62
    3
 10
187.43023255813955
 20
100.29069767441861
 40
6
 41
1
 50
0
  1
c
  0
TEXT
  8
_0-0_
 62
    3
 10
177.69767441860466
 20
26.511627906976742
 40
6
 41
1
 50
0
  1
e
  0
TEXT
  8
_0-0_
 62
    3
 10
84.767441860465112
 20
99.976744186046517
 40
6
 41
1
 50
0
  1
a
  0
TEXT
  8
_0-0_
 62
    3
 10
113.02325581395348
 20
136.08139534883722
 40
6
 41
1
 50
0
  1
b
  0
TEXT
  8
_0-0_
 62
    3
 10
121.5
 20
99.034883720930239
 40
6
 41
1
 50
0
  1
a
  0
TEXT
  8
_0-0_
 62
    3
 10
107.05813953488372
 20
135.45348837209303
 40
6
 41
1
 50
0
  1
b
  0
TEXT
  8
_0-0_
 62
    3
 10
43.95348837209302
 20
135.45348837209303
 40
6
 41
1
 50
0
  1
b
  0
TEXT
  8
_0-0_
 62
    3
 10
41.127906976744185
 20
121.63953488372093
 40
6
 41
1
 50
0
  1
c
  0
TEXT
  8
_0-0_
 62
    3
 10
110.19767441860465
 20
112.22093023255815
 40
6
 41
1
 50
0
  1
c
  0
TEXT
  8
_0-0_
 62
    3
 10
113.65116279069767
 20
112.22093023255815
 40
6
 41
1
 50
0
  1
c
  0
TEXT
  8
_0-0_
 62
    3
 10
119.93023255813954
 20
112.53488372093024
 40
6
 41
1
 50
0
  1
c
  0
TEXT
  8
_0-0_
 62
    3
 10
117.1046511627907
 20
120.69767441860465
 40
6
 41
1
 50
0
  1
d
  0
TEXT
  8
_0-0_
 62
    3
 10
66.558139534883722
 20
124.15116279069767
 40
6
 41
1
 50
0
  1
e
  0
TEXT
  8
_0-0_
 62
    3
 10
187.74418604651163
 20
88.988372093023258
 40
6
 41
1
 50
0
  1
c
  0
TEXT
  8
_0-0_
 62
    3
 10
187.74418604651163
 20
76.744186046511629
 40
6
 41
1
 50
0
  1
c
  0
LINE
  8
_0-0_
  6
CONTINUOUS
 62
    7
 10
59.849302325581448
 20
44.466259277585308
 11
59.849302325581448
 21
47.366259277585314
  0
LINE
  8
_0-0_
  6
CONTINUOUS
 62
    7
 10
59.849302325581448
 20
44.466259277585308
 11
64.249302325581453
 21
44.466259277585308
  0
LINE
  8
_0-0_
  6
CONTINUOUS
 62
    7
 10
64.249302325581453
 20
47.366259277585314
 11
64.249302325581453
 21
44.466259277585308
  0
LINE
  8
_0-0_
  6
CONTINUOUS
 62
    7
 10
60.499302325581425
 20
48.466259277585308
 11
60.499302325581425
 21
47.366259277585314
  0
ARC
  8
_0-0_
  6
CONTINUOUS
 62
    7
 10
61.999302325581425
 20
48.466259277585308
 40
1.5
 50
88.089786828289647
 51
180
  0
LINE
  8
_0-0_
  6
CONTINUOUS
 62
    7
 10
62.099302325581448
 20
49.966259277585308
 11
61.999302325581425
 21
49.966259277585308
  0
LINE
  8
_0-0_
  6
CONTINUOUS
 62
    7
 10
63.599302325581448
 20
48.466259277585308
 11
63.599302325581448
 21
47.366259277585314
  0
ARC
  8
_0-0_
  6
CONTINUOUS
 62
    7
 10
62.099302325581448
 20
48.466259277585308
 40
1.5
 50
0
 51
90
  0
LINE
  8
_0-0_
  6
CONTINUOUS
 62
    7
 10
70.009302325581444
 20
44.466259277585308
 11
70.009302325581444
 21
47.366259277585314
  0
LINE
  8
_0-0_
  6
CONTINUOUS
 62
    7
 10
70.009302325581444
 20
44.466259277585308
 11
74.40930232558145
 21
44.466259277585308
  0
LINE
  8
_0-0_
  6
CONTINUOUS
 62
    7
 10
74.40930232558145
 20
47.366259277585314
 11
74.40930232558145
 21
44.466259277585308
  0
LINE
  8
_0-0_
  6
CONTINUOUS
 62
    7
 10
70.659302325581422
 20
48.466259277585308
 11
70.659302325581422
 21
47.366259277585314
  0
ARC
  8
_0-0_
  6
CONTINUOUS
 62
    7
 10
72.159302325581422
 20
48.466259277585308
 40
1.5
 50
88.089786828289647
 51
180
  0
LINE
  8
_0-0_
  6
CONTINUOUS
 62
    7
 10
72.259302325581444
 20
49.966259277585308
 11
72.159302325581422
 21
49.966259277585308
  0
LINE
  8
_0-0_
  6
CONTINUOUS
 62
    7
 10
73.759302325581444
 20
48.466259277585308
 11
73.759302325581444
 21
47.366259277585314
  0
ARC
  8
_0-0_
  6
CONTINUOUS
 62
    7
 10
72.259302325581444
 20
48.466259277585308
 40
1.5
 50
0
 51
90
  0
LINE
  8
_0-0_
  6
CONTINUOUS
 62
    7
 10
80.169302325581441
 20
44.466259277585308
 11
80.169302325581441
 21
47.366259277585314
  0
LINE
  8
_0-0_
  6
CONTINUOUS
 62
    7
 10
80.169302325581441
 20
44.466259277585308
 11
84.569302325581447
 21
44.466259277585308
  0
LINE
  8
_0-0_
  6
CONTINUOUS
 62
    7
 10
84.569302325581447
 20
47.366259277585314
 11
84.569302325581447
 21
44.466259277585308
  0
LINE
  8
_0-0_
  6
CONTINUOUS
 62
    7
 10
80.819302325581418
 20
48.466259277585308
 11
80.819302325581418
 21
47.366259277585314
  0
ARC
  8
_0-0_
  6
CONTINUOUS
 62
    7
 10
82.319302325581418
 20
48.466259277585308
 40
1.5
 50
88.089786828289647
 51
180
  0
LINE
  8
_0-0_
  6
CONTINUOUS
 62
    7
 10
82.419302325581441
 20
49.966259277585308
 11
82.319302325581418
 21
49.966259277585308
  0
LINE
  8
_0-0_
  6
CONTINUOUS
 62
    7
 10
83.919302325581441
 20
48.466259277585308
 11
83.919302325581441
 21
47.366259277585314
  0
ARC
  8
_0-0_
  6
CONTINUOUS
 62
    7
 10
82.419302325581441
 20
48.466259277585308
 40
1.5
 50
0
 51
90
  0
LINE
  8
_0-0_
  6
CONTINUOUS
 62
    7
 10
59.849302325581448
 20
47.366259277585314
 11
60.499302325581425
 21
47.366259277585314
  0
LINE
  8
_0-0_
  6
CONTINUOUS
 62
    7
 10
63.599302325581448
 20
47.366259277585314
 11
64.249302325581453
 21
47.366259277585314
  0
LINE
  8
_0-0_
  6
CONTINUOUS
 62
    7
 10
70.009302325581444
 20
47.366259277585314
 11
70.659302325581422
 21
47.366259277585314
  0
LINE
  8
_0-0_
  6
CONTINUOUS
 62
    7
 10
73.759302325581444
 20
47.366259277585314
 11
74.40930232558145
 21
47.366259277585314
  0
LINE
  8
_0-0_
  6
CONTINUOUS
 62
    7
 10
80.169302325581441
 20
47.366259277585314
 11
80.819302325581418
 21
47.366259277585314
  0
LINE
  8
_0-0_
  6
CONTINUOUS
 62
    7
 10
83.919302325581441
 20
47.366259277585314
 11
84.569302325581447
 21
47.366259277585314
  0
LINE
  8
_0-0_
  6
CONTINUOUS
 62
    7
 10
59.849302325581448
 20
34.306259277585312
 11
59.849302325581448
 21
37.206259277585318
  0
LINE
  8
_0-0_
  6
CONTINUOUS
 62
    7
 10
59.849302325581448
 20
34.306259277585312
 11
64.249302325581453
 21
34.306259277585312
  0
LINE
  8
_0-0_
  6
CONTINUOUS
 62
    7
 10
64.249302325581453
 20
37.206259277585318
 11
64.249302325581453
 21
34.306259277585312
  0
LINE
  8
_0-0_
  6
CONTINUOUS
 62
    7
 10
60.499302325581425
 20
38.306259277585312
 11
60.499302325581425
 21
37.206259277585318
  0
ARC
  8
_0-0_
  6
CONTINUOUS
 62
    7
 10
61.999302325581425
 20
38.306259277585312
 40
1.5
 50
88.089786828289647
 51
180
  0
LINE
  8
_0-0_
  6
CONTINUOUS
 62
    7
 10
62.099302325581448
 20
39.806259277585312
 11
61.999302325581425
 21
39.806259277585312
  0
LINE
  8
_0-0_
  6
CONTINUOUS
 62
    7
 10
63.599302325581448
 20
38.306259277585312
 11
63.599302325581448
 21
37.206259277585318
  0
ARC
  8
_0-0_
  6
CONTINUOUS
 62
    7
 10
62.099302325581448
 20
38.306259277585312
 40
1.5
 50
0
 51
90
  0
LINE
  8
_0-0_
  6
CONTINUOUS
 62
    7
 10
70.009302325581444
 20
34.306259277585312
 11
70.009302325581444
 21
37.206259277585318
  0
LINE
  8
_0-0_
  6
CONTINUOUS
 62
    7
 10
70.009302325581444
 20
34.306259277585312
 11
74.40930232558145
 21
34.306259277585312
  0
LINE
  8
_0-0_
  6
CONTINUOUS
 62
    7
 10
74.40930232558145
 20
37.206259277585318
 11
74.40930232558145
 21
34.306259277585312
  0
LINE
  8
_0-0_
  6
CONTINUOUS
 62
    7
 10
70.659302325581422
 20
38.306259277585312
 11
70.659302325581422
 21
37.206259277585318
  0
ARC
  8
_0-0_
  6
CONTINUOUS
 62
    7
 10
72.159302325581422
 20
38.306259277585312
 40
1.5
 50
88.089786828289647
 51
180
  0
LINE
  8
_0-0_
  6
CONTINUOUS
 62
    7
 10
72.259302325581444
 20
39.806259277585312
 11
72.159302325581422
 21
39.806259277585312
  0
LINE
  8
_0-0_
  6
CONTINUOUS
 62
    7
 10
73.759302325581444
 20
38.306259277585312
 11
73.759302325581444
 21
37.206259277585318
  0
ARC
  8
_0-0_
  6
CONTINUOUS
 62
    7
 10
72.259302325581444
 20
38.306259277585312
 40
1.5
 50
0
 51
90
  0
LINE
  8
_0-0_
  6
CONTINUOUS
 62
    7
 10
80.169302325581441
 20
34.306259277585312
 11
80.169302325581441
 21
37.206259277585318
  0
LINE
  8
_0-0_
  6
CONTINUOUS
 62
    7
 10
80.169302325581441
 20
34.306259277585312
 11
84.569302325581447
 21
34.306259277585312
  0
LINE
  8
_0-0_
  6
CONTINUOUS
 62
    7
 10
84.569302325581447
 20
37.206259277585318
 11
84.569302325581447
 21
34.306259277585312
  0
LINE
  8
_0-0_
  6
CONTINUOUS
 62
    7
 10
80.819302325581418
 20
38.306259277585312
 11
80.819302325581418
 21
37.206259277585318
  0
ARC
  8
_0-0_
  6
CONTINUOUS
 62
    7
 10
82.319302325581418
 20
38.306259277585312
 40
1.5
 50
88.089786828289647
 51
180
  0
LINE
  8
_0-0_
  6
CONTINUOUS
 62
    7
 10
82.419302325581441
 20
39.806259277585312
 11
82.319302325581418
 21
39.806259277585312
  0
LINE
  8
_0-0_
  6
CONTINUOUS
 62
    7
 10
83.919302325581441
 20
38.306259277585312
 11
83.919302325581441
 21
37.206259277585318
  0
ARC
  8
_0-0_
  6
CONTINUOUS
 62
    7
 10
82.419302325581441
 20
38.306259277585312
 40
1.5
 50
0
 51
90
  0
LINE
  8
_0-0_
  6
CONTINUOUS
 62
    7
 10
59.849302325581448
 20
37.206259277585318
 11
60.499302325581425
 21
37.206259277585318
  0
LINE
  8
_0-0_
  6
CONTINUOUS
 62
    7
 10
63.599302325581448
 20
37.206259277585318
 11
64.249302325581453
 21
37.206259277585318
  0
LINE
  8
_0-0_
  6
CONTINUOUS
 62
    7
 10
70.009302325581444
 20
37.206259277585318
 11
70.659302325581422
 21
37.206259277585318
  0
LINE
  8
_0-0_
  6
CONTINUOUS
 62
    7
 10
73.759302325581444
 20
37.206259277585318
 11
74.40930232558145
 21
37.206259277585318
  0
LINE
  8
_0-0_
  6
CONTINUOUS
 62
    7
 10
80.169302325581441
 20
37.206259277585318
 11
80.819302325581418
 21
37.206259277585318
  0
LINE
  8
_0-0_
  6
CONTINUOUS
 62
    7
 10
83.919302325581441
 20
37.206259277585318
 11
84.569302325581447
 21
37.206259277585318
  0
LINE
  8
_0-0_
  6
CONTINUOUS
 62
    7
 10
59.849302325581448
 20
24.146259277585315
 11
59.849302325581448
 21
27.046259277585321
  0
LINE
  8
_0-0_
  6
CONTINUOUS
 62
    7
 10
59.849302325581448
 20
24.146259277585315
 11
64.249302325581453
 21
24.146259277585315
  0
LINE
  8
_0-0_
  6
CONTINUOUS
 62
    7
 10
64.249302325581453
 20
27.046259277585321
 11
64.249302325581453
 21
24.146259277585315
  0
LINE
  8
_0-0_
  6
CONTINUOUS
 62
    7
 10
60.499302325581425
 20
28.146259277585315
 11
60.499302325581425
 21
27.046259277585321
  0
ARC
  8
_0-0_
  6
CONTINUOUS
 62
    7
 10
61.999302325581425
 20
28.146259277585315
 40
1.5
 50
88.089786828289647
 51
180
  0
LINE
  8
_0-0_
  6
CONTINUOUS
 62
    7
 10
62.099302325581448
 20
29.646259277585315
 11
61.999302325581425
 21
29.646259277585315
  0
LINE
  8
_0-0_
  6
CONTINUOUS
 62
    7
 10
63.599302325581448
 20
28.146259277585315
 11
63.599302325581448
 21
27.046259277585321
  0
ARC
  8
_0-0_
  6
CONTINUOUS
 62
    7
 10
62.099302325581448
 20
28.146259277585315
 40
1.5
 50
0
 51
90
  0
LINE
  8
_0-0_
  6
CONTINUOUS
 62
    7
 10
70.009302325581444
 20
24.146259277585315
 11
70.009302325581444
 21
27.046259277585321
  0
LINE
  8
_0-0_
  6
CONTINUOUS
 62
    7
 10
70.009302325581444
 20
24.146259277585315
 11
74.40930232558145
 21
24.146259277585315
  0
LINE
  8
_0-0_
  6
CONTINUOUS
 62
    7
 10
74.40930232558145
 20
27.046259277585321
 11
74.40930232558145
 21
24.146259277585315
  0
LINE
  8
_0-0_
  6
CONTINUOUS
 62
    7
 10
70.659302325581422
 20
28.146259277585315
 11
70.659302325581422
 21
27.046259277585321
  0
ARC
  8
_0-0_
  6
CONTINUOUS
 62
    7
 10
72.159302325581422
 20
28.146259277585315
 40
1.5
 50
88.089786828289647
 51
180
  0
LINE
  8
_0-0_
  6
CONTINUOUS
 62
    7
 10
72.259302325581444
 20
29.646259277585315
 11
72.159302325581422
 21
29.646259277585315
  0
LINE
  8
_0-0_
  6
CONTINUOUS
 62
    7
 10
73.759302325581444
 20
28.146259277585315
 11
73.759302325581444
 21
27.046259277585321
  0
ARC
  8
_0-0_
  6
CONTINUOUS
 62
    7
 10
72.259302325581444
 20
28.146259277585315
 40
1.5
 50
0
 51
90
  0
LINE
  8
_0-0_
  6
CONTINUOUS
 62
    7
 10
80.169302325581441
 20
24.146259277585315
 11
80.169302325581441
 21
27.046259277585321
  0
LINE
  8
_0-0_
  6
CONTINUOUS
 62
    7
 10
80.169302325581441
 20
24.146259277585315
 11
84.569302325581447
 21
24.146259277585315
  0
LINE
  8
_0-0_
  6
CONTINUOUS
 62
    7
 10
84.569302325581447
 20
27.046259277585321
 11
84.569302325581447
 21
24.146259277585315
  0
LINE
  8
_0-0_
  6
CONTINUOUS
 62
    7
 10
80.819302325581418
 20
28.146259277585315
 11
80.819302325581418
 21
27.046259277585321
  0
ARC
  8
_0-0_
  6
CONTINUOUS
 62
    7
 10
82.319302325581418
 20
28.146259277585315
 40
1.5
 50
88.089786828289647
 51
180
  0
LINE
  8
_0-0_
  6
CONTINUOUS
 62
    7
 10
82.419302325581441
 20
29.646259277585315
 11
82.319302325581418
 21
29.646259277585315
  0
LINE
  8
_0-0_
  6
CONTINUOUS
 62
    7
 10
83.919302325581441
 20
28.146259277585315
 11
83.919302325581441
 21
27.046259277585321
  0
ARC
  8
_0-0_
  6
CONTINUOUS
 62
    7
 10
82.419302325581441
 20
28.146259277585315
 40
1.5
 50
0
 51
90
  0
LINE
  8
_0-0_
  6
CONTINUOUS
 62
    7
 10
59.849302325581448
 20
27.046259277585321
 11
60.499302325581425
 21
27.046259277585321
  0
LINE
  8
_0-0_
  6
CONTINUOUS
 62
    7
 10
63.599302325581448
 20
27.046259277585321
 11
64.249302325581453
 21
27.046259277585321
  0
LINE
  8
_0-0_
  6
CONTINUOUS
 62
    7
 10
70.009302325581444
 20
27.046259277585321
 11
70.659302325581422
 21
27.046259277585321
  0
LINE
  8
_0-0_
  6
CONTINUOUS
 62
    7
 10
73.759302325581444
 20
27.046259277585321
 11
74.40930232558145
 21
27.046259277585321
  0
LINE
  8
_0-0_
  6
CONTINUOUS
 62
    7
 10
80.169302325581441
 20
27.046259277585321
 11
80.819302325581418
 21
27.046259277585321
  0
LINE
  8
_0-0_
  6
CONTINUOUS
 62
    7
 10
83.919302325581441
 20
27.046259277585321
 11
84.569302325581447
 21
27.046259277585321
  0
LINE
  8
_0-0_
  6
CONTINUOUS
 62
    7
 10
47.209302325581447
 20
62.055842495113552
 11
97.209302325581447
 21
62.055842495113552
  0
LINE
  8
_0-0_
  6
CONTINUOUS
 62
    7
 10
47.209302325581447
 20
12.055842495113552
 11
47.209302325581447
 21
62.055842495113552
  0
LINE
  8
_0-0_
  6
CONTINUOUS
 62
    7
 10
47.209302325581447
 20
12.055842495113552
 11
97.209302325581447
 21
12.055842495113552
  0
LINE
  8
_0-0_
  6
CONTINUOUS
 62
    7
 10
97.209302325581447
 20
62.055842495113552
 11
97.209302325581447
 21
12.055842495113552
  0
LINE
  8
_0-0_
  6
DASHED1
 62
    7
 10
16.325581395348848
 20
86.16279069767441
 11
156.66279069767441
 21
86.16279069767441
  0
TEXT
  8
_0-0_
 62
    2
 10
41.755813953488371
 20
74.54651162790698
 40
8
 41
1
 50
0
  1
ハンダ用下敷き
  0
TEXT
  8
_0-0_
 62
    7
 10
105.17441860465117
 20
61.046511627906973
 40
4
 41
1
 50
0
  1
t5　コルクボート使用
  0
TEXT
  8
_0-0_
 62
    7
 10
104.86046511627907
 20
46.604651162790695
 40
4
 41
1
 50
0
  1
3πショートエンドミルで
  0
TEXT
  8
_0-0_
 62
    7
 10
104.54651162790697
 20
41.581395348837212
 40
4
 41
1
 50
0
  1
d2.5彫りこみ
  0
ENDSEC
  0
EOF
